<?xml version="1.0" standalone="no"?>
<!DOCTYPE svg PUBLIC "-//W3C//DTD SVG 20010904//EN"
 "http://www.w3.org/TR/2001/REC-SVG-20010904/DTD/svg10.dtd">
<svg version="1.0" xmlns="http://www.w3.org/2000/svg"
 width="700.000000pt" height="700.000000pt" viewBox="0 0 700.000000 700.000000"
 preserveAspectRatio="xMidYMid meet">
<metadata>
Created by potrace 1.14, written by Peter Selinger 2001-2017
</metadata>
<g transform="translate(0.000000,700.000000) scale(0.100000,-0.100000)"
fill="#000000" stroke="none">
<path d="M3085 6254 c-73 -8 -189 -24 -260 -38 -80 -15 -298 -73 -323 -85 -10
-5 -55 -23 -102 -41 -89 -34 -287 -134 -355 -179 -22 -15 -52 -33 -66 -40 -15
-7 -44 -29 -65 -47 -22 -19 -52 -42 -69 -51 -90 -48 -369 -323 -469 -463 -57
-79 -134 -199 -168 -260 -61 -109 -138 -267 -138 -281 0 -8 -7 -27 -15 -43 -9
-16 -13 -31 -11 -33 3 -3 -4 -22 -15 -44 -12 -21 -18 -43 -14 -49 3 -5 1 -10
-4 -10 -6 0 -11 -4 -11 -10 0 -5 -37 -65 -81 -132 -95 -144 -197 -338 -214
-408 -2 -8 -10 -34 -19 -58 -33 -91 -57 -254 -58 -384 0 -205 26 -316 106
-438 32 -51 124 -140 144 -140 7 0 10 -5 6 -12 -4 -7 -3 -8 5 -4 6 4 18 3 25
-3 21 -18 128 -41 192 -42 195 -3 391 108 540 305 20 28 45 59 55 70 11 11 19
26 19 33 0 7 4 13 8 13 5 0 23 26 39 58 17 31 46 86 65 122 36 70 64 147 56
155 -14 14 -36 -13 -71 -85 -21 -44 -44 -86 -51 -93 -8 -7 -20 -26 -29 -42
-38 -74 -204 -268 -221 -258 -6 3 -8 3 -4 -2 10 -10 -122 -115 -144 -115 -10
0 -18 -4 -18 -9 0 -11 -104 -57 -160 -70 -43 -10 -124 -14 -88 -4 16 4 16 6 4
19 -8 8 -19 14 -25 14 -6 0 -8 6 -5 14 6 17 -7 81 -41 201 -14 50 -35 160 -46
245 -18 131 -20 188 -16 370 3 118 10 238 16 265 6 28 20 99 32 160 11 60 26
113 32 117 9 6 9 8 0 8 -16 0 42 91 96 150 22 25 41 48 41 52 0 4 9 10 20 13
11 4 18 10 15 15 -3 4 12 22 33 39 20 18 42 35 47 40 6 5 17 17 26 27 36 44
189 143 251 163 54 18 104 5 133 -34 14 -17 25 -39 25 -48 0 -9 5 -19 10 -22
13 -8 13 -92 0 -175 -37 -236 -114 -430 -251 -631 -44 -65 -45 -71 -24 -89 19
-16 42 3 88 70 17 25 33 47 37 50 9 7 73 119 93 162 10 20 22 40 27 43 6 4 8
10 5 15 -5 8 2 27 40 115 13 28 34 96 50 155 16 63 20 102 20 200 0 87 -4 113
-23 151 -48 103 -151 142 -282 107 -24 -7 -136 -66 -151 -80 -8 -7 -32 -26
-54 -42 -22 -17 -70 -59 -107 -95 -38 -35 -68 -62 -68 -58 0 13 52 130 70 157
6 8 15 26 20 40 6 14 18 37 28 52 9 14 32 53 51 85 18 32 40 62 47 66 8 4 14
13 14 18 0 24 130 188 238 300 169 176 395 348 582 443 30 16 62 32 70 37 70
42 335 137 480 172 215 52 305 62 560 61 272 -1 383 -16 625 -82 112 -30 186
-55 240 -78 17 -8 62 -27 100 -43 39 -16 90 -41 115 -55 25 -14 59 -33 75 -42
53 -30 170 -108 173 -116 2 -5 8 -8 14 -8 11 0 67 -40 124 -90 22 -19 67 -58
100 -87 32 -28 88 -81 124 -118 36 -37 86 -88 111 -114 25 -25 49 -56 53 -69
7 -22 91 -112 105 -112 8 0 31 -50 31 -67 0 -7 7 -13 15 -13 8 0 15 3 15 6 0
14 -46 90 -62 102 -10 7 -18 24 -18 37 0 14 -12 34 -31 49 -17 14 -41 46 -54
70 -43 82 -149 199 -275 306 -29 25 -63 54 -74 65 -31 29 -171 135 -180 135
-7 0 -66 40 -76 51 -3 3 -34 21 -70 41 -245 133 -340 172 -575 234 -228 60
-336 75 -575 79 -118 2 -233 1 -255 -1z m-2176 -2121 c-20 -165 -17 -470 5
-608 24 -149 73 -349 101 -410 22 -48 22 -50 4 -53 -11 -2 -17 -8 -13 -13 7
-12 -41 -1 -80 18 -71 36 -162 160 -180 244 -3 13 -13 53 -21 89 -13 50 -16
97 -12 207 2 78 9 148 14 155 6 7 13 36 17 65 4 29 18 87 32 130 27 85 133
308 141 299 3 -3 -1 -58 -8 -123z"/>
<path d="M3742 5366 c-6 -11 -16 -46 -23 -76 -7 -30 -21 -86 -31 -125 -11 -38
-21 -81 -24 -95 -3 -14 -9 -41 -15 -61 -13 -53 -27 -121 -45 -224 -8 -49 -17
-99 -19 -110 -3 -11 -7 -34 -11 -51 -6 -29 -10 -32 -102 -58 -181 -50 -237
-68 -292 -90 -46 -18 -55 -26 -55 -46 0 -24 3 -25 60 -23 36 1 89 12 135 28
79 29 202 65 221 65 8 0 10 -16 6 -52 -3 -29 -13 -120 -21 -203 -9 -82 -18
-175 -21 -205 -3 -30 -8 -71 -11 -90 -8 -60 -10 -769 -2 -764 5 3 8 1 8 -3 0
-5 7 -60 15 -123 15 -114 22 -148 53 -245 9 -27 16 -52 17 -55 0 -3 4 -11 8
-18 6 -8 0 -20 -17 -33 -15 -12 -25 -29 -23 -41 2 -17 -4 -21 -48 -23 -85 -6
-92 -12 -74 -65 12 -32 36 -40 45 -15 4 8 17 15 29 15 13 0 27 4 30 10 3 5 19
7 35 3 20 -4 30 -1 30 6 0 7 6 19 14 26 12 12 16 11 31 -5 9 -10 24 -16 33
-14 10 3 -3 -5 -28 -16 -25 -12 -53 -26 -62 -31 -10 -5 -25 -9 -33 -9 -9 0
-18 -7 -21 -15 -3 -8 -21 -17 -40 -21 -37 -7 -41 -18 -19 -48 8 -11 15 -39 15
-63 0 -36 -3 -43 -24 -49 -17 -4 -31 2 -50 19 -15 14 -38 28 -51 31 -27 7 -75
-8 -75 -23 0 -16 39 -33 60 -26 17 5 20 2 20 -24 0 -17 -4 -31 -10 -31 -5 0
-10 7 -10 15 0 9 -9 15 -25 15 -22 0 -24 -2 -13 -20 23 -37 -4 -35 -34 2 -29
37 -49 45 -82 32 -24 -9 -19 -24 7 -24 26 0 61 -33 72 -67 8 -30 35 -30 35 0
l1 22 18 -22 c23 -27 39 -29 56 -6 12 16 14 16 29 0 11 -11 15 -24 10 -42 -5
-21 -3 -25 16 -25 12 0 31 5 43 11 17 10 24 8 42 -13 11 -13 26 -23 33 -20 16
5 44 -17 36 -29 -3 -5 -2 -8 3 -7 4 2 9 -1 11 -7 1 -5 -15 -11 -37 -13 -33 -3
-44 2 -69 29 -25 27 -33 30 -45 21 -8 -7 -22 -9 -32 -6 -27 11 -35 -15 -19
-59 20 -56 5 -68 -40 -34 -19 15 -39 27 -45 27 -6 0 -11 9 -11 20 0 11 -5 20
-11 20 -17 0 -45 35 -59 73 -30 80 -29 79 -50 67 -26 -14 -35 -8 -66 41 -14
23 -32 39 -44 39 -10 0 -22 5 -25 10 -13 20 -51 10 -73 -20 -19 -25 -27 -28
-52 -23 -25 4 -30 2 -31 -13 -1 -11 -7 -1 -13 20 -7 22 -18 42 -24 44 -16 5
-15 -25 1 -31 10 -4 10 -7 0 -18 -17 -17 -16 -29 1 -29 8 0 17 -11 20 -24 6
-23 41 -45 53 -33 2 3 -3 18 -13 32 -18 28 -18 28 3 14 19 -11 27 -10 57 6 32
18 37 18 51 4 9 -9 18 -35 20 -58 l4 -43 -25 17 c-19 12 -32 14 -52 7 -15 -5
-57 -7 -94 -4 -58 4 -68 7 -68 23 0 10 5 21 10 24 6 3 10 17 10 29 0 21 -5 24
-39 24 -37 1 -40 -1 -43 -31 -2 -24 -9 -33 -28 -37 -18 -4 -26 -14 -28 -32 -4
-31 12 -38 64 -29 38 7 41 6 74 -37 19 -24 50 -58 68 -75 17 -17 32 -37 32
-45 0 -15 64 -82 95 -99 15 -9 15 -11 1 -26 -9 -8 -16 -20 -16 -26 0 -5 -16
-13 -36 -17 -39 -7 -54 -31 -54 -89 0 -27 -5 -34 -25 -39 -16 -4 -25 -13 -25
-27 0 -27 -18 -59 -33 -59 -7 0 -17 10 -22 22 -13 31 -45 36 -45 9 0 -15 6
-21 23 -21 22 0 22 0 -3 -15 -14 -8 -31 -17 -39 -21 -14 -7 -114 15 -168 38
-16 6 -32 12 -38 12 -36 4 -162 56 -312 129 -152 73 -401 245 -499 343 -30 30
-58 54 -61 54 -13 0 -235 244 -273 300 -13 19 -39 49 -58 66 -18 17 -42 44
-53 60 -16 25 -19 26 -19 9 0 -11 6 -29 14 -40 7 -11 16 -33 20 -50 16 -67
161 -258 291 -386 128 -125 285 -253 372 -304 18 -10 29 -23 26 -28 -3 -6 -1
-7 5 -3 6 3 30 -7 55 -24 67 -45 228 -122 362 -174 66 -26 126 -50 134 -54 28
-16 22 -31 -16 -41 -46 -13 -83 -37 -83 -56 0 -24 20 -27 58 -9 29 14 64 18
167 19 72 1 140 5 153 9 17 6 22 4 22 -9 0 -9 7 -23 15 -31 23 -23 18 -38 -15
-52 -17 -8 -27 -18 -24 -23 7 -11 63 -2 78 12 18 16 42 9 56 -16 16 -31 45
-29 44 3 0 12 7 24 15 26 36 11 101 14 101 5 0 -5 -8 -10 -17 -10 -70 -5 -79
-9 -70 -34 8 -20 27 -19 27 1 0 9 5 14 12 12 15 -5 22 -64 8 -73 -5 -3 -10
-15 -10 -26 0 -15 6 -19 23 -17 12 2 28 7 35 12 7 4 25 5 39 1 15 -3 34 0 47
8 38 24 65 27 76 7 17 -32 12 -52 -10 -45 -14 4 -20 2 -20 -8 0 -24 -56 -37
-151 -37 -74 0 -89 -3 -89 -16 0 -38 19 -52 82 -59 35 -4 89 -18 121 -31 79
-33 151 -48 220 -45 51 2 58 0 55 -16 -5 -28 38 -28 101 0 31 14 81 29 111 35
30 5 85 24 121 40 37 17 75 29 85 27 11 -2 23 -4 28 -4 5 -1 3 -8 -4 -16 -11
-13 -8 -15 19 -15 17 0 31 5 31 10 0 15 32 12 54 -5 22 -17 36 -11 36 14 0 11
16 24 43 35 40 17 76 34 192 87 28 12 54 29 58 36 4 7 17 13 27 13 10 0 21 4
25 9 3 5 31 22 62 38 31 15 69 41 83 57 22 24 30 27 46 18 16 -10 23 -6 45 20
14 17 37 32 50 34 13 1 27 3 31 3 3 1 14 24 24 53 15 46 18 49 25 30 6 -15 17
-22 33 -22 26 0 46 -24 46 -55 0 -11 -5 -15 -15 -11 -21 8 -75 -14 -75 -31 0
-8 -28 -27 -65 -44 -36 -16 -65 -33 -65 -39 0 -17 17 -19 36 -5 10 8 27 15 36
15 10 0 33 14 52 30 42 38 96 61 124 53 27 -7 28 11 2 52 -26 40 -50 94 -50
111 0 17 27 18 33 2 2 -8 22 -13 50 -13 39 0 47 3 47 18 0 15 -5 17 -30 12
-23 -5 -32 -3 -37 11 -4 10 -2 19 5 22 7 2 12 10 12 17 0 8 23 26 50 41 28 15
50 33 50 39 0 18 34 45 57 45 11 0 26 -7 33 -15 11 -13 9 -19 -9 -34 -24 -21
-27 -31 -8 -31 16 0 97 74 97 89 0 8 -7 7 -22 -3 -53 -37 -82 -5 -41 44 25 31
34 32 76 15 15 -6 16 -4 7 19 -5 15 -9 32 -7 38 1 6 -3 12 -10 15 -6 2 -13 -6
-16 -19 -2 -13 -5 -4 -6 20 -1 40 0 42 20 30 17 -10 23 -10 26 0 3 7 22 12 44
12 30 0 37 3 33 15 -4 8 -12 15 -20 15 -24 0 -16 14 16 28 28 13 33 32 9 32
-6 0 -7 -4 -4 -10 3 -5 -3 -10 -14 -10 -18 0 -16 6 20 57 54 77 67 83 96 47
17 -22 23 -25 23 -11 0 21 28 22 54 2 21 -16 106 -21 106 -7 0 5 -13 7 -30 4
-25 -4 -30 -1 -30 16 0 33 -26 47 -65 35 -27 -9 -37 -8 -46 3 -21 25 8 63 53
70 37 6 56 34 23 34 -20 0 -19 7 5 37 11 14 20 30 20 35 0 10 -62 -20 -72 -36
-4 -6 -10 -7 -15 -3 -4 5 -1 12 7 18 13 8 13 10 0 19 -11 7 -6 8 16 4 19 -4
34 -1 38 5 4 6 14 11 23 11 8 0 24 11 35 25 13 17 29 25 50 25 22 0 29 4 25
15 -4 10 4 17 27 23 33 10 76 40 76 54 0 15 -35 8 -69 -13 -49 -30 -57 -12
-22 52 17 30 44 81 60 114 17 33 40 71 51 83 15 16 22 41 27 89 7 77 13 89 53
98 29 6 60 42 60 70 0 10 -10 15 -30 15 -36 0 -37 6 -6 45 22 27 26 29 49 16
32 -17 59 -4 32 16 -11 7 -26 13 -36 13 -10 0 -19 11 -23 25 -11 42 -14 40 90
44 39 1 42 4 64 51 23 49 23 51 6 86 -9 20 -14 39 -11 43 4 3 25 6 46 6 33 0
43 5 57 28 13 20 14 31 6 45 -14 22 -7 42 14 42 51 1 97 96 70 144 -7 13 -24
44 -37 69 -14 26 -29 47 -33 47 -4 0 -8 6 -8 14 0 7 -10 16 -22 20 -17 4 -20
8 -11 17 15 15 55 -21 89 -79 19 -33 31 -42 47 -40 14 2 23 11 25 26 3 21 7
22 35 15 54 -14 232 -10 251 6 9 7 16 16 16 20 0 3 -24 19 -52 35 -29 17 -66
42 -83 57 -16 15 -41 37 -54 48 -17 15 -20 21 -9 21 20 0 32 48 17 66 -9 11
-6 18 12 34 13 10 29 19 36 20 7 0 16 6 20 13 4 7 26 26 48 42 22 17 42 33 45
36 3 4 31 23 64 44 38 24 55 40 48 47 -14 14 -80 27 -142 28 -34 0 -50 4 -42
9 11 7 11 9 -2 14 -17 7 -22 53 -8 59 5 2 12 20 15 40 9 61 -11 63 -72 8 -56
-52 -153 -98 -160 -76 -10 26 -46 47 -74 42 -19 -4 -33 0 -47 14 -32 32 -50
26 -50 -19 0 -42 -13 -51 -73 -51 -19 0 -30 -7 -36 -22 -12 -33 -3 -41 39 -35
21 2 41 2 46 -2 21 -15 32 -50 25 -77 -6 -23 -14 -30 -39 -32 -38 -4 -38 -6
-11 -35 17 -18 18 -23 5 -25 -8 -2 -13 -9 -10 -15 8 -22 -50 -45 -99 -40 -38
5 -46 9 -50 30 -3 16 3 34 19 53 13 15 24 36 24 45 0 10 5 15 14 12 21 -8 33
10 28 43 -5 34 -7 34 -51 19 -36 -13 -37 -16 -13 -42 16 -20 16 -20 -1 -14
-10 4 -26 7 -34 7 -11 0 -14 8 -11 31 4 24 0 34 -18 46 -32 20 -42 10 -50 -47
-5 -38 -11 -50 -24 -50 -15 0 -17 7 -13 48 2 26 11 80 19 121 25 130 15 164
-42 135 -16 -8 -33 -21 -39 -28 -5 -7 -17 -15 -27 -18 -12 -5 -17 1 -23 30 -8
45 -65 233 -75 247 -4 6 -13 31 -20 57 -7 26 -19 53 -26 59 -8 6 -14 18 -14
26 0 18 -50 117 -61 121 -5 2 -9 10 -9 17 0 22 -22 65 -31 60 -4 -3 -17 15
-29 40 -22 46 -37 54 -57 34 -9 -9 -6 -23 13 -58 13 -25 24 -53 24 -61 0 -8 9
-30 20 -48 11 -18 20 -39 20 -47 0 -8 5 -15 10 -15 6 0 10 -8 10 -19 0 -10 7
-24 15 -31 8 -7 15 -21 15 -31 0 -10 4 -28 9 -41 5 -13 18 -45 29 -73 21 -51
62 -199 88 -315 17 -77 11 -141 -16 -165 -11 -10 -20 -23 -20 -29 0 -6 -28
-40 -62 -76 -83 -87 -110 -156 -70 -179 13 -8 14 -10 2 -10 -39 0 -79 66 -51
84 15 9 41 66 41 89 0 31 -15 48 -36 44 -21 -4 -61 -59 -71 -97 -9 -38 -56
-91 -80 -91 -13 0 -14 2 -2 18 8 9 21 23 30 29 14 11 15 19 7 55 -14 58 -51
95 -115 115 -46 14 -61 15 -101 4 -84 -22 -126 -55 -181 -138 -28 -43 -56 -83
-61 -90 -6 -7 -10 -16 -10 -21 0 -5 -7 -23 -15 -39 -8 -17 -23 -61 -32 -99 -9
-38 -20 -70 -25 -72 -4 -2 -8 -9 -8 -16 0 -10 -70 -128 -87 -146 -2 -2 -8 2
-14 10 -7 12 -8 9 -7 -9 2 -18 -5 -29 -25 -40 -26 -15 -29 -15 -43 4 -13 16
-15 38 -9 117 6 107 27 237 44 281 6 16 11 44 11 63 0 27 -5 37 -25 46 -19 8
-28 8 -40 -2 -8 -7 -15 -16 -15 -21 0 -4 -5 -20 -11 -36 -7 -15 -13 -35 -14
-43 -36 -220 -47 -255 -94 -297 -52 -45 -143 -17 -145 46 -1 16 -3 28 -6 26
-3 -1 -16 21 -29 49 -55 119 -191 132 -247 25 -8 -17 -20 -27 -26 -23 -6 4 -8
3 -5 -3 7 -12 -17 -68 -41 -95 -29 -34 -40 -21 -52 65 -14 97 -10 173 7 170 7
-2 10 4 7 12 -4 8 1 17 10 21 9 3 16 12 16 19 0 16 39 64 40 48 0 -6 -4 -15
-10 -18 -5 -3 -10 -11 -10 -18 0 -6 7 -1 16 11 8 12 12 27 9 32 -3 6 11 37 31
70 27 44 40 57 46 48 6 -9 7 -6 4 8 -4 11 3 40 15 64 67 139 125 321 155 487
3 15 17 28 39 37 40 17 39 40 -1 50 -24 6 -25 8 -18 69 4 34 8 103 8 153 1 78
-2 95 -19 114 -56 62 -122 63 -178 1 -20 -22 -39 -36 -43 -33 -4 4 -4 2 -1 -4
6 -10 -26 -93 -62 -164 -4 -8 -16 -46 -26 -85 -10 -38 -23 -73 -28 -76 -5 -3
-8 -10 -8 -15 1 -5 -5 -9 -11 -9 -7 0 -15 -3 -18 -6 -3 -3 -33 -13 -68 -21
l-63 -16 7 66 c3 36 9 75 14 86 4 12 11 46 14 76 11 86 56 321 68 360 7 19 13
41 14 49 2 8 6 26 10 40 6 23 8 53 5 80 -2 20 -39 18 -49 -3z m373 -366 c-3
-5 -2 -10 2 -10 27 0 44 -187 22 -248 -9 -26 -18 -32 -47 -37 -21 -3 -52 -10
-69 -14 -23 -7 -33 -6 -33 2 0 7 -4 6 -10 -3 -5 -8 -12 -11 -16 -8 -4 4 -15 3
-24 -2 -17 -9 -17 -6 1 51 19 60 42 119 59 149 5 8 20 38 35 67 20 40 32 53
53 56 15 2 28 5 30 6 2 0 0 -3 -3 -9z m0 -416 c-11 -107 -78 -301 -164 -474
-50 -100 -134 -240 -145 -240 -5 0 3 204 10 260 3 25 7 61 9 82 5 43 5 46 39
218 15 74 34 142 42 150 12 12 134 41 201 49 9 1 11 -12 8 -45z m-320 -64 c-8
-25 -34 -162 -52 -275 -21 -131 -29 -472 -12 -563 6 -37 12 -79 13 -94 0 -14
4 -24 9 -21 4 2 7 -2 7 -10 0 -7 12 -24 26 -38 58 -55 156 -14 190 80 10 28
21 48 26 45 4 -3 8 3 8 14 0 22 40 72 58 72 21 0 48 -32 81 -100 18 -36 40
-73 49 -84 47 -52 134 -62 188 -21 l33 25 7 -45 c8 -55 40 -105 77 -123 32
-15 83 -8 91 14 3 8 12 14 20 14 7 0 16 8 19 18 6 16 61 119 82 152 7 12 11 9
16 -15 4 -17 10 -39 14 -50 5 -18 2 -21 -22 -20 -25 0 -28 -3 -28 -35 0 -39 2
-37 -136 -180 -55 -58 -105 -113 -110 -123 -6 -10 -22 -22 -36 -28 -14 -5 -27
-18 -30 -29 -3 -11 -14 -22 -24 -25 -10 -4 -19 -13 -19 -20 0 -8 -16 -23 -36
-33 -20 -10 -36 -21 -36 -25 1 -40 -26 -61 -78 -62 -16 0 -26 -7 -28 -20 -6
-31 -20 -42 -57 -49 -37 -7 -55 -30 -55 -68 0 -22 -4 -24 -37 -20 -69 8 -98
55 -40 67 59 12 69 17 63 31 -3 9 9 23 33 39 22 13 42 29 46 35 4 6 18 15 31
20 18 7 24 17 24 41 0 23 4 30 14 26 20 -8 28 4 15 20 -16 19 -39 16 -39 -4 0
-22 -62 -73 -89 -73 -11 0 -29 -14 -41 -31 -33 -45 -96 -82 -119 -69 -21 11
-51 4 -51 -11 0 -12 46 -86 59 -93 5 -3 7 -15 4 -26 -3 -12 1 -22 11 -26 9 -3
16 -13 16 -20 0 -12 -4 -12 -21 -3 -13 6 -38 9 -60 5 -33 -5 -39 -4 -39 12 0
23 -35 62 -58 63 -57 4 -72 -8 -72 -59 0 -47 -20 -36 -36 19 -13 44 -40 176
-48 234 -2 17 -6 37 -9 45 -30 77 -46 593 -27 860 14 200 56 609 66 633 3 10
33 25 68 36 55 16 62 17 74 3 6 -9 10 -23 7 -32z m1315 -471 c0 -5 5 -7 11 -4
15 10 59 -42 59 -68 0 -12 -7 -31 -15 -41 -8 -11 -15 -28 -15 -37 0 -24 -18
-33 -58 -31 -46 4 -58 -9 -108 -111 -80 -164 -124 -216 -159 -187 -21 18 -19
79 6 164 20 69 66 168 82 174 4 2 7 9 7 16 0 25 66 90 114 112 56 26 76 30 76
13z m418 -63 c2 -10 -2 -15 -10 -14 -8 2 -12 -5 -11 -19 1 -11 -4 -26 -12 -33
-19 -16 -51 -4 -51 19 0 11 5 17 13 14 7 -3 13 1 13 8 0 18 31 50 44 46 6 -2
12 -11 14 -21z m224 -53 c5 -27 4 -63 -3 -63 -25 0 -39 15 -39 41 0 22 5 29
20 29 11 0 21 -3 22 -7z m-140 -21 c-7 -2 -9 -9 -6 -14 5 -8 -4 -9 -27 -5
l-34 7 25 -16 25 -15 -25 7 c-14 4 -33 7 -42 6 -10 0 -18 1 -18 4 0 10 86 41
99 36 11 -4 11 -7 3 -10z m404 -8 c13 -14 24 -28 24 -33 0 -4 10 -18 22 -31
l22 -23 -25 7 c-13 4 -32 8 -42 7 -10 0 -21 8 -24 17 -3 9 -15 27 -26 39 -10
12 -16 26 -12 32 11 18 37 12 61 -15z m-683 -23 c4 -15 1 -18 -12 -14 -14 6
-14 4 2 -14 17 -19 17 -21 1 -27 -9 -4 -19 -4 -22 -1 -3 3 1 5 8 5 9 0 8 5 -5
13 -17 14 -17 15 1 35 10 11 20 21 20 21 1 1 4 -8 7 -18z m186 -27 c25 -5 31
-11 25 -23 -3 -9 -7 -22 -7 -28 -1 -18 -17 -16 -50 6 -20 13 -25 20 -15 24 7
3 0 6 -17 6 -23 1 -27 4 -15 11 18 11 36 12 79 4z m-329 -11 c0 -5 -5 -15 -10
-23 -9 -13 -11 -13 -20 0 -15 22 -12 30 10 30 11 0 20 -3 20 -7z m221 -51 c15
5 38 -19 39 -39 0 -7 -4 -13 -10 -13 -5 0 -10 6 -10 14 0 8 -10 16 -22 18 -14
2 -24 11 -26 23 -2 15 -1 17 6 6 5 -7 16 -11 23 -9z m-71 0 c0 -5 -7 -17 -16
-28 -8 -10 -14 -14 -11 -9 2 6 7 18 10 28 7 17 17 23 17 9z m58 -80 c6 -18
-25 -14 -32 4 -3 8 -10 12 -16 9 -6 -3 -7 1 -4 10 6 14 9 14 27 2 12 -8 23
-19 25 -25z m202 -11 c0 -43 -22 -74 -49 -69 -27 5 -23 34 9 72 18 20 34 36
36 36 2 0 4 -18 4 -39z m494 23 c17 -17 13 -34 -8 -34 -14 0 -28 35 -18 44 8
8 9 8 26 -10z m-864 -60 c0 -19 -16 -18 -24 2 -11 27 -7 37 9 24 8 -7 15 -19
15 -26z m858 -31 c31 -19 82 -72 82 -85 0 -13 -32 -9 -71 10 -20 9 -34 22 -32
28 2 6 -3 17 -12 24 -17 14 -20 40 -5 40 6 0 23 -8 38 -17z m-484 -85 c-3 -29
-7 -61 -10 -70 -8 -27 -70 -22 -124 11 -53 32 -59 61 -17 75 25 9 31 7 51 -19
24 -30 56 -30 56 1 0 18 27 54 41 54 4 0 6 -24 3 -52z m-489 22 c3 -5 1 -10
-4 -10 -6 0 -11 5 -11 10 0 6 2 10 4 10 3 0 8 -4 11 -10z m-55 -87 c0 -12 -33
-43 -45 -43 -7 0 -15 11 -17 25 -5 23 -2 25 28 25 19 0 34 -3 34 -7z m181 -16
c21 -17 30 -45 17 -53 -12 -7 -47 33 -48 54 0 15 10 15 31 -1z m193 -28 c19
-11 40 -18 46 -14 6 4 17 1 25 -5 17 -14 20 -50 5 -50 -5 0 -10 -9 -10 -19 0
-13 -8 -21 -22 -23 -21 -3 -23 -8 -20 -54 l2 -51 -39 -13 c-22 -7 -47 -10 -55
-7 -19 7 -21 -9 -6 -47 15 -41 3 -58 -36 -50 -30 5 -34 4 -34 -14 0 -35 -15
-33 -54 8 -21 22 -42 40 -47 40 -5 0 -9 9 -9 20 0 16 7 20 30 20 17 0 39 -9
50 -20 19 -19 40 -27 40 -15 0 3 -10 19 -22 36 -23 30 -23 31 -3 45 11 8 28
13 38 10 24 -6 21 1 -9 29 l-27 25 29 22 c16 13 44 24 64 26 19 1 39 7 43 11
14 14 -2 31 -29 31 -17 0 -27 8 -34 26 -13 34 -13 33 13 44 31 12 32 12 71
-11z m-489 -69 c9 -14 -13 -50 -30 -50 -15 0 -21 40 -8 53 10 10 31 8 38 -3z
m1070 -54 c19 -29 11 -76 -14 -76 -20 0 -51 49 -51 79 0 30 45 28 65 -3z
m-824 4 c10 -6 19 -18 19 -26 0 -13 -8 -15 -50 -9 -32 4 -50 3 -50 -3 0 -6 5
-14 10 -17 21 -13 9 -23 -15 -12 -31 15 -32 41 -3 61 26 18 61 20 89 6z m-201
-139 c14 -20 17 -32 9 -36 -12 -8 -71 44 -63 57 10 16 33 7 54 -21z m175 -62
l40 -42 -30 6 c-28 5 -66 -6 -55 -16 3 -2 32 -12 65 -22 33 -10 68 -26 77 -35
9 -10 30 -24 47 -31 17 -8 32 -18 32 -24 1 -5 3 -22 5 -37 2 -22 -1 -28 -16
-28 -10 0 -25 -3 -34 -6 -11 -4 -18 5 -27 34 -13 46 -45 68 -83 58 -19 -5 -28
-2 -32 9 -4 8 -12 15 -19 15 -19 0 -65 40 -65 57 0 8 9 17 20 20 15 4 20 14
20 37 0 27 6 46 15 46 0 0 19 -19 40 -41z m-225 -79 c0 -5 3 -15 6 -24 4 -9 1
-16 -6 -16 -14 0 -50 42 -44 52 5 8 44 -2 44 -12z m470 -75 c0 -8 -7 -15 -15
-15 -8 0 -15 7 -15 15 0 8 7 15 15 15 8 0 15 -7 15 -15z m-506 -17 c9 -12 14
-24 12 -26 -9 -8 -46 19 -46 33 0 22 17 18 34 -7z m308 -29 c-1 -15 4 -39 13
-55 8 -16 15 -35 15 -41 0 -7 5 -13 10 -13 6 0 10 -5 10 -11 0 -6 -6 -9 -12
-6 -7 2 -23 0 -35 -4 -17 -6 -23 -4 -28 11 -6 20 -51 60 -66 60 -5 0 -6 -7 -3
-15 9 -24 -48 -19 -81 7 l-28 22 22 18 c13 9 19 23 16 29 -5 8 -1 9 13 5 12
-4 44 -9 72 -11 45 -4 50 -3 50 16 0 14 5 19 18 17 12 -3 16 -12 14 -29z
m-522 -45 c0 -16 -16 -19 -25 -4 -8 13 4 32 16 25 5 -4 9 -13 9 -21z m810 -10
c0 -8 -4 -12 -10 -9 -5 3 -10 13 -10 21 0 8 5 12 10 9 6 -3 10 -13 10 -21z
m-33 -9 c8 -22 -2 -28 -33 -21 -25 7 -26 8 -8 21 25 19 33 18 41 0z m-153 -11
c4 -9 4 -19 2 -21 -8 -8 -26 8 -26 23 0 19 16 18 24 -2z m86 -48 c0 -17 -14
-29 -23 -20 -8 8 3 34 14 34 5 0 9 -6 9 -14z m37 -33 c-3 -10 -5 -2 -5 17 0
19 2 27 5 18 2 -10 2 -26 0 -35z m-871 3 c19 -19 18 -26 -5 -26 -19 0 -35 23
-24 34 9 9 13 8 29 -8z m714 -2 c0 -2 -7 -4 -15 -4 -8 0 -15 4 -15 10 0 5 7 7
15 4 8 -4 15 -8 15 -10z m65 6 c-3 -5 -10 -10 -16 -10 -5 0 -9 5 -9 10 0 6 7
10 16 10 8 0 12 -4 9 -10z m-145 -40 c0 -5 -5 -10 -11 -10 -5 0 -7 5 -4 10 3
6 8 10 11 10 2 0 4 -4 4 -10z m-1404 -45 c-7 -28 6 -34 52 -27 20 3 32 0 32
-7 0 -6 -4 -11 -10 -11 -5 0 -10 -6 -10 -14 0 -20 -40 -49 -88 -65 -28 -10
-42 -21 -46 -37 -5 -19 -13 -24 -36 -24 -34 0 -35 4 -17 43 9 21 19 27 43 27
19 0 41 10 58 25 38 35 33 47 -16 43 -38 -3 -43 0 -46 19 -4 25 24 47 63 49
23 2 26 -1 21 -21z m1324 15 c0 -5 -7 -10 -15 -10 -8 0 -15 5 -15 10 0 6 7 10
15 10 8 0 15 -4 15 -10z m47 -16 c-3 -3 -12 -4 -19 -1 -8 3 -5 6 6 6 11 1 17
-2 13 -5z m-767 -48 c0 -3 -4 -8 -10 -11 -5 -3 -10 -1 -10 4 0 6 5 11 10 11 6
0 10 -2 10 -4z m-100 -16 c0 -5 -4 -10 -10 -10 -5 0 -10 5 -10 10 0 6 5 10 10
10 6 0 10 -4 10 -10z m485 -10 c3 -5 -3 -10 -14 -10 -10 0 -28 -3 -38 -6 -16
-6 -16 -5 2 9 23 19 41 21 50 7z m602 -82 c-3 -8 -6 -5 -6 6 -1 11 2 17 5 13
3 -3 4 -12 1 -19z m-1777 -43 c15 -18 5 -35 -20 -35 -10 0 -20 -6 -23 -12 -3
-9 -13 -3 -31 15 -14 15 -26 30 -26 32 0 2 17 6 38 8 20 2 40 4 43 5 4 1 12
-5 19 -13z m935 -15 c-3 -5 -19 -10 -36 -10 -16 0 -29 5 -29 10 0 6 16 10 36
10 21 0 33 -4 29 -10z m852 -22 c-3 -8 -6 -5 -6 6 -1 11 2 17 5 13 3 -3 4 -12
1 -19z m-199 -49 c3 -12 2 -12 -7 1 -17 25 -26 1 -10 -28 14 -23 14 -30 2 -52
l-14 -25 3 31 c1 17 -4 39 -11 48 -11 13 -11 19 -1 31 15 18 32 15 38 -6z
m222 5 c0 -2 -15 -4 -32 -3 -27 0 -29 2 -13 8 18 8 45 4 45 -5z m-290 -24 c0
-5 -2 -10 -4 -10 -3 0 -8 5 -11 10 -3 6 -1 10 4 10 6 0 11 -4 11 -10z m-585
-24 c-11 -8 -24 -12 -29 -8 -5 3 -1 9 10 13 31 12 39 10 19 -5z m547 -52 c-8
-14 -9 -13 -9 10 0 18 3 24 9 18 7 -7 7 -16 0 -28z m195 4 c-3 -8 -6 -5 -6 6
-1 11 2 17 5 13 3 -3 4 -12 1 -19z m-227 2 c0 -5 -2 -10 -4 -10 -3 0 -8 5 -11
10 -3 6 -1 10 4 10 6 0 11 -4 11 -10z m57 -32 c-3 -8 -6 -5 -6 6 -1 11 2 17 5
13 3 -3 4 -12 1 -19z m-77 4 c0 -4 -9 -8 -20 -8 -11 0 -20 4 -20 8 0 4 9 8 20
8 11 0 20 -4 20 -8z m370 -2 c0 -5 -5 -10 -11 -10 -5 0 -7 5 -4 10 3 6 8 10
11 10 2 0 4 -4 4 -10z m60 -6 c0 -2 -9 -4 -21 -4 -11 0 -18 4 -14 10 5 8 35 3
35 -6z m-400 -32 c0 -15 -2 -15 -10 -2 -13 20 -13 33 0 25 6 -3 10 -14 10 -23z
m-1383 1 c39 -18 53 -41 32 -54 -37 -23 -89 2 -101 49 -8 28 18 29 69 5z
m1329 -4 c3 -5 1 -9 -5 -9 -17 0 -41 12 -41 20 0 10 38 1 46 -11z m77 -24 c-3
-9 -8 -14 -10 -11 -3 3 -2 9 2 15 9 16 15 13 8 -4z m24 -7 c-3 -8 -6 -5 -6 6
-1 11 2 17 5 13 3 -3 4 -12 1 -19z m-117 2 c0 -5 -5 -10 -11 -10 -5 0 -7 5 -4
10 3 6 8 10 11 10 2 0 4 -4 4 -10z m404 -14 c-7 -19 -35 -18 -42 2 -2 7 2 10
11 6 8 -3 18 0 22 6 10 16 17 6 9 -14z m-54 4 c0 -5 -4 -10 -9 -10 -6 0 -13 5
-16 10 -3 6 1 10 9 10 9 0 16 -4 16 -10z m-2204 -38 c13 -9 26 -82 14 -82 -10
0 -50 63 -50 79 0 12 19 14 36 3z m1887 -22 c4 -16 0 -20 -21 -19 -18 1 -21 3
-9 6 14 4 16 8 6 19 -9 11 -8 14 4 14 8 0 17 -9 20 -20z m-2053 -2 c22 -7 41
-20 43 -30 3 -11 15 -18 30 -18 14 0 27 -7 31 -15 11 -29 -68 -33 -137 -6 -35
13 -58 58 -36 72 18 11 22 11 69 -3z m2250 2 c0 -5 -2 -10 -4 -10 -3 0 -8 5
-11 10 -3 6 -1 10 4 10 6 0 11 -4 11 -10z m-1290 -10 c22 -7 22 -8 5 -10 -11
-1 -26 -1 -34 0 -10 1 -12 -5 -7 -22 4 -13 10 -34 13 -48 3 -14 15 -35 26 -47
11 -12 17 -29 14 -37 -3 -8 1 -17 9 -20 19 -7 18 -26 -2 -26 -28 0 -54 40 -54
82 0 21 -4 38 -10 38 -5 0 -10 6 -10 14 0 19 -25 27 -39 13 -8 -8 -11 -7 -11
6 0 9 4 17 8 17 5 0 14 11 20 25 12 26 28 29 72 15z m-696 -62 c17 -24 22 -68
8 -68 -14 0 -32 23 -32 41 0 9 -7 19 -15 23 -22 8 -18 26 4 26 11 0 27 -10 35
-22z m566 -48 c0 -5 -10 -10 -22 -10 -19 0 -20 2 -8 10 19 13 30 13 30 0z
m605 -24 c0 -34 -13 -43 -30 -20 -22 29 -20 33 25 43 3 0 6 -10 5 -23z m201
-3 c-10 -10 -19 5 -10 18 6 11 8 11 12 0 2 -7 1 -15 -2 -18z m-1478 -4 c21
-21 19 -59 -2 -59 -23 0 -49 27 -52 53 -3 34 26 37 54 6z m-92 -6 c15 -20 18
-33 7 -33 -5 0 -13 11 -20 25 -13 29 -6 33 13 8z m1194 7 c0 -5 -4 -10 -10
-10 -5 0 -10 5 -10 10 0 6 5 10 10 10 6 0 10 -4 10 -10z m455 -32 c3 -2 -11
-5 -30 -6 -19 -1 -37 3 -40 8 -6 9 60 8 70 -2z m-468 -20 c-3 -8 -6 -5 -6 6
-1 11 2 17 5 13 3 -3 4 -12 1 -19z m501 -23 c-3 -3 -9 2 -12 12 -6 14 -5 15 5
6 7 -7 10 -15 7 -18z m-28 -5 c0 -5 -2 -10 -4 -10 -3 0 -8 5 -11 10 -3 6 -1
10 4 10 6 0 11 -4 11 -10z m-703 -22 c-3 -8 -6 -5 -6 6 -1 11 2 17 5 13 3 -3
4 -12 1 -19z m513 2 c14 -11 31 -20 38 -20 8 0 12 -6 9 -12 -5 -14 -11 -14
-39 -3 -14 5 -18 2 -18 -13 0 -12 5 -24 11 -28 8 -4 7 -9 -2 -16 -9 -5 -4 -6
14 -2 31 7 34 2 10 -22 -15 -14 -15 -18 -2 -28 8 -6 13 -21 11 -34 -2 -12 4
-29 12 -38 18 -18 21 -50 5 -59 -17 -11 -23 3 -9 20 10 12 10 15 -3 15 -20 0
-47 38 -40 56 3 8 -2 17 -11 20 -11 4 -14 13 -10 30 7 29 7 29 -37 7 l-34 -17
25 -7 c20 -6 21 -7 5 -8 -27 -1 -49 14 -41 28 4 6 18 11 32 11 15 0 24 6 24
15 0 8 -8 15 -17 15 -17 1 -17 1 -1 11 10 5 23 19 29 30 10 19 9 20 -13 14
-22 -7 -22 -7 -5 12 9 11 17 25 17 31 0 17 11 15 40 -8z m137 -22 c-3 -8 -6
-5 -6 6 -1 11 2 17 5 13 3 -3 4 -12 1 -19z m-27 -8 c0 -5 -5 -10 -11 -10 -5 0
-7 5 -4 10 3 6 8 10 11 10 2 0 4 -4 4 -10z m110 -30 c0 -5 -5 -10 -11 -10 -5
0 -7 5 -4 10 3 6 8 10 11 10 2 0 4 -4 4 -10z m-664 -24 c10 -8 16 -17 12 -21
-7 -7 -48 16 -48 27 0 12 14 9 36 -6z m574 -12 c0 -8 -4 -12 -10 -9 -5 3 -10
10 -10 16 0 5 5 9 10 9 6 0 10 -7 10 -16z m40 -34 c0 -10 -5 -22 -10 -25 -13
-8 -24 20 -16 41 8 20 26 9 26 -16z m235 -20 c-8 -24 -28 -22 -33 5 -4 20 18
39 31 26 5 -5 6 -19 2 -31z m-115 -24 c0 -9 -30 -14 -35 -6 -4 6 3 10 14 10
12 0 21 -2 21 -4z m-80 -26 c0 -11 -4 -20 -10 -20 -5 0 -10 9 -10 20 0 11 5
20 10 20 6 0 10 -9 10 -20z m-90 2 c0 -13 -12 -22 -22 -16 -10 6 -1 24 13 24
5 0 9 -4 9 -8z m190 -78 c0 -3 -6 -12 -14 -19 -17 -17 -30 -7 -15 12 12 13 29
18 29 7z m-610 -14 c0 -5 -5 -10 -11 -10 -5 0 -7 5 -4 10 3 6 8 10 11 10 2 0
4 -4 4 -10z m422 -54 c16 -20 24 -37 18 -41 -6 -3 -10 -1 -10 4 0 6 -5 11 -12
11 -16 0 -48 31 -48 47 0 24 24 14 52 -21z m113 24 c3 -5 -1 -10 -9 -10 -9 0
-16 5 -16 10 0 6 4 10 9 10 6 0 13 -4 16 -10z m-1168 -536 c-3 -3 -12 -4 -19
-1 -8 3 -5 6 6 6 11 1 17 -2 13 -5z"/>
<path d="M3875 4020 c-3 -5 -1 -10 4 -10 6 0 11 5 11 10 0 6 -2 10 -4 10 -3 0
-8 -4 -11 -10z"/>
<path d="M4407 3491 c-4 -17 -3 -21 5 -13 5 5 8 16 6 23 -3 8 -7 3 -11 -10z"/>
<path d="M4500 3347 c0 -8 -11 -19 -25 -25 -27 -12 -33 -28 -13 -34 15 -5 68
20 68 32 0 5 3 15 6 24 4 12 0 16 -15 16 -12 0 -21 -6 -21 -13z"/>
<path d="M4400 3260 c0 -5 9 -10 21 -10 11 0 17 5 14 10 -3 6 -13 10 -21 10
-8 0 -14 -4 -14 -10z"/>
<path d="M4360 3215 c0 -8 9 -15 20 -15 11 0 20 7 20 15 0 8 -9 15 -20 15 -11
0 -20 -7 -20 -15z"/>
<path d="M4284 3156 c-16 -19 -39 -35 -50 -38 -22 -4 -33 -48 -11 -48 8 0 34
14 58 32 24 17 45 31 47 30 12 -9 21 3 20 28 -1 40 -25 39 -64 -4z"/>
<path d="M3835 2820 c-7 -12 11 -40 26 -40 14 0 10 26 -5 39 -10 9 -16 9 -21
1z"/>
<path d="M4891 3684 c0 -11 3 -14 6 -6 3 7 2 16 -1 19 -3 4 -6 -2 -5 -13z"/>
<path d="M4851 3674 c0 -11 3 -14 6 -6 3 7 2 16 -1 19 -3 4 -6 -2 -5 -13z"/>
<path d="M5465 3930 c-3 -5 -2 -10 4 -10 5 0 13 5 16 10 3 6 2 10 -4 10 -5 0
-13 -4 -16 -10z"/>
<path d="M3700 5324 c0 -8 5 -12 10 -9 6 4 8 11 5 16 -9 14 -15 11 -15 -7z"/>
<path d="M1695 4899 c-4 -6 -5 -12 -2 -15 2 -3 7 2 10 11 7 17 1 20 -8 4z"/>
<path d="M1637 4343 c-4 -3 -7 -11 -7 -17 0 -6 5 -5 12 2 6 6 9 14 7 17 -3 3
-9 2 -12 -2z"/>
<path d="M5905 4312 c-11 -15 -18 -33 -17 -40 2 -8 -2 -20 -9 -28 -6 -8 -9
-18 -5 -21 12 -12 40 12 60 51 16 32 16 40 5 51 -12 11 -17 9 -34 -13z"/>
<path d="M6550 4320 c0 -5 14 -10 30 -10 17 0 30 5 30 10 0 6 -13 10 -30 10
-16 0 -30 -4 -30 -10z"/>
<path d="M6517 4306 c-16 -13 -16 -14 -1 -20 20 -8 27 -3 22 18 -2 12 -6 13
-21 2z"/>
<path d="M6035 4170 c3 -5 10 -10 16 -10 5 0 9 5 9 10 0 6 -7 10 -16 10 -8 0
-12 -4 -9 -10z"/>
<path d="M4507 4102 c-35 -37 -35 -67 1 -79 38 -13 54 -7 75 28 21 38 22 65 1
73 -30 12 -50 6 -77 -22z"/>
<path d="M2247 3976 c-46 -48 -67 -78 -67 -93 0 -16 -30 -70 -81 -144 -37 -56
-79 -84 -87 -60 -2 6 -7 9 -12 6 -21 -13 -23 98 -5 220 6 36 4 45 -12 54 -32
17 -60 3 -67 -32 -3 -18 -8 -43 -11 -57 -11 -54 -5 -161 11 -192 27 -52 62
-78 106 -78 49 0 83 18 129 67 35 36 54 68 121 198 30 59 43 71 61 56 10 -7
46 -91 53 -121 0 -3 4 -12 7 -20 3 -8 8 -28 11 -45 2 -16 7 -45 10 -62 17 -95
17 -92 -22 -136 -80 -88 -197 -291 -237 -409 -10 -31 -21 -55 -24 -53 -3 2 -7
-7 -7 -18 -1 -12 -9 -51 -18 -87 -9 -36 -24 -94 -33 -130 -9 -36 -21 -68 -27
-72 -7 -5 -7 -8 -1 -8 6 0 10 -33 11 -76 l1 -75 47 -45 c42 -39 52 -44 95 -44
210 0 347 345 328 824 -4 83 -9 176 -13 206 l-6 55 60 60 c63 63 152 132 152
118 0 -4 4 -3 8 4 4 6 7 -35 7 -90 0 -115 18 -164 68 -181 63 -23 108 22 133
129 16 70 25 99 60 185 20 51 51 100 64 100 4 0 7 -111 6 -247 -1 -230 0 -250
18 -276 22 -32 60 -50 86 -42 31 10 51 53 56 123 6 78 23 152 35 152 5 0 6 6
3 14 -3 8 4 24 15 35 12 12 21 25 21 30 0 12 52 50 102 76 41 21 37 42 -6 31
-14 -3 -29 -6 -32 -5 -4 0 -10 -3 -13 -8 -3 -5 -20 -19 -38 -31 -23 -16 -33
-19 -37 -10 -3 9 -5 8 -3 -2 2 -13 -36 -85 -52 -100 -4 -3 -6 -11 -7 -17 -3
-35 -4 -38 -12 -26 -4 7 -9 -6 -10 -30 -1 -23 -8 -62 -16 -87 l-13 -44 -8 49
c-4 28 -6 102 -4 165 8 263 6 290 -19 311 -49 39 -90 10 -143 -98 -24 -49 -44
-93 -45 -99 -1 -6 -16 -42 -34 -80 -18 -38 -39 -84 -46 -101 -8 -18 -19 -33
-24 -33 -27 0 -24 174 5 285 8 32 13 67 10 76 -12 38 -85 28 -85 -11 0 -11 -4
-20 -10 -20 -5 0 -10 -13 -10 -30 0 -16 -6 -34 -12 -40 -60 -50 -104 -77 -116
-72 -11 4 -13 1 -7 -8 6 -10 4 -12 -9 -7 -9 4 -15 3 -11 -2 3 -5 -16 -28 -42
-51 l-48 -42 -13 49 c-46 167 -68 216 -115 267 -46 49 -86 49 -130 2z m193
-488 c1 -18 3 -105 5 -192 2 -88 0 -153 -5 -146 -4 7 -8 -21 -8 -61 0 -142
-69 -385 -103 -363 -5 3 -6 -2 -3 -10 8 -21 -63 -111 -99 -127 -46 -20 -84 9
-78 59 1 6 -3 12 -9 12 -13 0 -12 126 1 195 5 28 10 59 12 70 2 11 9 30 15 42
7 12 11 26 10 30 -5 23 46 160 97 263 58 116 147 259 162 260 2 0 3 -15 3 -32z"/>
<path d="M2411 3084 c0 -11 3 -14 6 -6 3 7 2 16 -1 19 -3 4 -6 -2 -5 -13z"/>
<path d="M2141 2774 c0 -11 3 -14 6 -6 3 7 2 16 -1 19 -3 4 -6 -2 -5 -13z"/>
<path d="M3471 3864 c0 -11 3 -14 6 -6 3 7 2 16 -1 19 -3 4 -6 -2 -5 -13z"/>
<path d="M2340 3855 c0 -5 5 -17 10 -25 5 -8 10 -10 10 -5 0 6 -5 17 -10 25
-5 8 -10 11 -10 5z"/>
<path d="M3290 3800 c-8 -5 -10 -10 -5 -10 6 0 17 5 25 10 8 5 11 10 5 10 -5
0 -17 -5 -25 -10z"/>
<path d="M6580 3770 c0 -5 5 -10 11 -10 5 0 7 5 4 10 -3 6 -8 10 -11 10 -2 0
-4 -4 -4 -10z"/>
<path d="M2891 3734 c0 -11 3 -14 6 -6 3 7 2 16 -1 19 -3 4 -6 -2 -5 -13z"/>
<path d="M1885 3650 c-3 -5 -1 -10 4 -10 6 0 11 5 11 10 0 6 -2 10 -4 10 -3 0
-8 -4 -11 -10z"/>
<path d="M2836 3623 c-6 -14 -5 -15 5 -6 7 7 10 15 7 18 -3 3 -9 -2 -12 -12z"/>
<path d="M1871 3594 c0 -11 3 -14 6 -6 3 7 2 16 -1 19 -3 4 -6 -2 -5 -13z"/>
<path d="M1609 3363 c-13 -16 -12 -17 4 -4 9 7 17 15 17 17 0 8 -8 3 -21 -13z"/>
<path d="M1545 3290 c-3 -5 -2 -10 4 -10 5 0 13 5 16 10 3 6 2 10 -4 10 -5 0
-13 -4 -16 -10z"/>
<path d="M5952 3128 c6 -18 28 -21 28 -4 0 9 -7 16 -16 16 -9 0 -14 -5 -12
-12z"/>
<path d="M1087 2927 c-3 -8 1 -23 8 -34 8 -10 15 -26 15 -37 0 -12 5 -16 15
-12 8 3 14 2 13 -2 -2 -4 5 -26 15 -49 12 -30 21 -41 32 -37 11 5 15 -1 15
-19 0 -25 34 -77 51 -77 13 0 1 39 -17 61 -8 8 -14 22 -14 31 0 8 -9 27 -20
41 -11 14 -20 35 -20 46 0 12 -5 31 -12 44 -6 12 -14 29 -18 37 -9 20 -56 25
-63 7z"/>
<path d="M2032 2700 c0 -14 2 -19 5 -12 2 6 2 18 0 25 -3 6 -5 1 -5 -13z"/>
<path d="M3390 2559 c0 -5 -13 -15 -30 -20 -16 -6 -30 -17 -30 -25 0 -18 12
-18 55 0 36 16 46 40 20 50 -8 3 -15 1 -15 -5z"/>
<path d="M3284 2496 c-8 -22 3 -33 18 -18 9 9 9 15 0 24 -9 9 -13 7 -18 -6z"/>
<path d="M3194 2465 c-4 -8 0 -23 7 -32 8 -9 13 -24 11 -33 -1 -9 4 -23 13
-30 13 -11 15 -8 15 18 0 51 -12 92 -27 92 -7 0 -16 -7 -19 -15z"/>
<path d="M3350 2452 c0 -12 19 -26 26 -19 2 2 -2 10 -11 17 -9 8 -15 8 -15 2z"/>
<path d="M3297 2444 c-8 -8 1 -24 14 -24 5 0 9 7 9 15 0 15 -12 20 -23 9z"/>
<path d="M5595 2280 c-8 -13 5 -13 25 0 13 8 13 10 -2 10 -9 0 -20 -4 -23 -10z"/>
<path d="M5542 2249 c2 -6 8 -10 13 -10 5 0 11 4 13 10 2 6 -4 11 -13 11 -9 0
-15 -5 -13 -11z"/>
<path d="M5650 2245 c0 -8 7 -15 15 -15 8 0 15 7 15 15 0 8 -7 15 -15 15 -8 0
-15 -7 -15 -15z"/>
<path d="M5700 2235 c0 -8 5 -15 10 -15 6 0 10 7 10 15 0 8 -4 15 -10 15 -5 0
-10 -7 -10 -15z"/>
<path d="M5350 2077 c0 -7 13 -23 30 -35 30 -23 70 -29 70 -12 0 6 -8 10 -19
10 -10 0 -24 7 -31 16 -21 25 -50 37 -50 21z"/>
<path d="M2665 2070 c-9 -14 -1 -23 37 -42 54 -26 138 -49 159 -43 24 8 24 33
-1 65 -18 24 -19 24 -33 6 -14 -19 -15 -19 -49 2 -37 23 -102 30 -113 12z"/>
<path d="M2640 2010 c0 -5 5 -10 10 -10 6 0 10 5 10 10 0 6 -4 10 -10 10 -5 0
-10 -4 -10 -10z"/>
<path d="M5442 1978 c3 -25 34 -65 43 -56 8 8 -24 78 -36 78 -6 0 -9 -10 -7
-22z"/>
<path d="M2547 1834 c-14 -15 -6 -34 14 -34 14 0 19 5 17 17 -3 18 -20 27 -31
17z"/>
<path d="M5341 1819 c-12 -11 -19 -24 -16 -30 9 -14 19 -10 38 16 22 30 7 41
-22 14z"/>
<path d="M5280 1735 c1 -26 2 -28 11 -12 8 14 8 22 0 30 -8 8 -11 3 -11 -18z"/>
<path d="M2848 1713 c7 -3 16 -2 19 1 4 3 -2 6 -13 5 -11 0 -14 -3 -6 -6z"/>
<path d="M5234 1709 c-9 -15 11 -33 30 -26 9 4 13 13 10 22 -7 17 -30 20 -40
4z"/>
<path d="M5195 1692 c-6 -4 -15 -16 -21 -27 -6 -11 -22 -21 -35 -22 -13 0 -30
-1 -36 -2 -7 -1 -13 -5 -13 -11 0 -5 24 -10 54 -10 l54 0 4 38 c6 43 6 43 -7
34z"/>
<path d="M5030 1668 c-16 -15 -19 -23 -11 -26 8 -3 17 1 21 7 4 7 13 11 20 9
8 -2 16 5 18 15 5 24 -19 22 -48 -5z"/>
<path d="M5055 1578 c-3 -7 -17 -14 -31 -14 -33 -2 -40 -10 -24 -29 26 -31 70
-16 77 27 3 21 -15 34 -22 16z"/>
<path d="M4930 1492 c0 -5 7 -13 16 -16 10 -4 14 -1 12 6 -5 15 -28 23 -28 10z"/>
<path d="M2340 1437 c0 -19 10 -27 26 -20 21 8 17 33 -6 33 -11 0 -20 -6 -20
-13z"/>
<path d="M2995 1270 c-9 -27 1 -37 23 -24 22 14 22 38 0 42 -10 2 -19 -5 -23
-18z"/>
<path d="M4560 1262 c0 -6 -22 -14 -50 -18 -48 -6 -65 -23 -40 -39 25 -15 114
44 95 63 -3 3 -5 0 -5 -6z"/>
<path d="M4415 1191 c-3 -5 -1 -12 5 -16 5 -3 10 1 10 9 0 18 -6 21 -15 7z"/>
<path d="M4267 1144 c-14 -14 -6 -24 19 -24 16 0 24 5 22 13 -5 14 -31 21 -41
11z"/>
<path d="M1021 587 c0 -10 -5 -16 -10 -13 -15 10 -92 17 -112 11 -16 -5 -18
-17 -18 -83 1 -112 1 -112 65 -112 47 0 59 4 86 30 17 17 27 30 22 30 -15 0
-31 45 -24 70 3 14 3 39 -1 55 -4 17 -7 22 -8 12z m-34 -61 c-2 -6 -13 -12
-25 -14 -16 -3 -19 1 -15 16 3 14 11 18 24 15 11 -3 18 -11 16 -17z m-26 -63
c-11 -5 -11 -7 0 -14 11 -7 10 -9 -3 -9 -10 0 -18 7 -18 15 0 8 8 15 18 14 12
0 13 -2 3 -6z m39 -7 c0 -3 -4 -8 -10 -11 -5 -3 -10 -1 -10 4 0 6 5 11 10 11
6 0 10 -2 10 -4z"/>
<path d="M4992 589 c-22 -8 -23 -13 -20 -101 3 -85 5 -93 23 -93 17 0 21 9 26
50 3 28 7 45 7 38 4 -25 78 -95 97 -91 17 3 19 12 18 93 -1 50 -2 94 -2 98 -1
5 -11 7 -23 5 -18 -2 -23 -10 -24 -33 -3 -73 -2 -72 -20 -45 -10 14 -22 30
-28 35 -6 6 -16 20 -21 31 -8 18 -14 20 -33 13z"/>
<path d="M1163 574 c-3 -9 -3 -42 1 -75 3 -36 2 -58 -3 -54 -5 3 -12 1 -16 -5
-3 -5 -2 -10 3 -10 5 0 12 -9 15 -21 8 -31 40 -20 48 16 l7 30 2 -30 c2 -22 4
-25 7 -10 6 24 23 44 23 27 0 -19 33 -52 52 -52 21 0 24 20 6 38 -10 10 -10
17 0 32 17 27 15 95 -3 110 -8 6 -42 14 -75 16 -48 2 -62 0 -67 -12z m107 -44
c14 -22 0 -40 -31 -40 -29 0 -35 12 -24 42 7 18 44 16 55 -2z"/>
<path d="M1225 510 c3 -5 8 -10 11 -10 2 0 4 5 4 10 0 6 -5 10 -11 10 -5 0 -7
-4 -4 -10z"/>
<path d="M1515 582 c-60 -10 -92 -55 -81 -115 12 -64 83 -94 150 -62 39 19 51
46 47 112 -2 43 -59 75 -116 65z m59 -61 c23 -25 18 -49 -16 -74 -25 -19 -28
-19 -52 -3 -27 17 -36 62 -16 82 18 18 66 15 84 -5z"/>
<path d="M1730 573 c1 -10 8 -36 16 -58 9 -22 17 -47 18 -55 15 -78 55 -93 80
-30 9 22 16 47 16 55 0 8 5 15 11 15 6 0 8 -11 4 -29 -5 -22 -1 -35 19 -56 36
-39 55 -29 77 40 10 33 23 73 29 90 6 18 6 33 1 38 -18 18 -38 -1 -51 -47 -16
-56 -26 -65 -34 -28 -26 109 -73 111 -91 3 -8 -50 -12 -48 -35 21 -13 40 -22
54 -38 56 -16 2 -22 -2 -22 -15z"/>
<path d="M3025 577 c-3 -7 -5 -52 -3 -98 l3 -84 58 -3 c45 -2 59 0 63 13 9 23
-6 32 -58 34 -14 1 -18 13 -20 73 -2 60 -6 73 -21 76 -9 2 -19 -3 -22 -11z"/>
<path d="M3300 555 c-6 -19 -16 -35 -21 -35 -6 0 -8 -4 -5 -9 3 -4 -3 -27 -14
-49 -11 -23 -20 -48 -20 -57 0 -20 24 -19 46 2 25 26 84 27 101 3 8 -11 21
-20 29 -20 22 0 13 41 -26 128 -27 59 -37 72 -56 72 -17 0 -25 -9 -34 -35z
m47 -82 c-2 -2 -11 -1 -20 3 -13 5 -14 9 -4 25 11 18 12 18 20 -3 4 -11 6 -23
4 -25z"/>
<path d="M3554 567 c-25 -22 -27 -27 -17 -50 7 -14 26 -33 44 -42 22 -12 28
-20 21 -27 -8 -8 -16 -7 -26 2 -20 16 -46 6 -46 -17 0 -34 79 -55 120 -33 50
27 43 93 -11 105 -27 6 -62 35 -41 35 6 0 13 -6 15 -12 4 -10 6 -10 6 0 1 8 9
10 26 6 22 -5 25 -3 25 20 0 14 -3 26 -7 26 -5 1 -24 3 -44 6 -29 4 -42 0 -65
-19z"/>
<path d="M3804 577 c-3 -8 -4 -52 -2 -98 3 -76 5 -84 23 -84 14 0 21 8 23 28
2 15 8 25 13 22 5 -4 9 1 9 9 0 11 7 15 23 12 12 -2 21 -9 20 -15 -2 -6 2 -11
8 -11 6 0 8 -9 4 -20 -4 -14 -1 -22 10 -26 29 -12 39 13 39 101 1 74 -1 86
-17 91 -26 8 -34 -5 -36 -58 -1 -13 -10 -18 -33 -18 -28 0 -33 4 -34 25 -1 14
-4 32 -8 40 -7 19 -35 20 -42 2z"/>
<path d="M5290 505 c-22 -46 -40 -91 -40 -100 0 -21 37 -19 49 3 14 26 73 28
96 2 10 -11 25 -20 33 -20 19 0 9 56 -22 114 -13 24 -25 53 -29 65 -3 13 -13
21 -26 21 -16 0 -29 -18 -61 -85z m70 1 c0 -2 -7 -9 -15 -16 -13 -11 -14 -10
-9 4 5 14 24 23 24 12z"/>
<path d="M5555 580 c-7 -11 -5 -155 3 -177 2 -7 13 -13 23 -13 18 0 20 7 17
97 -3 82 -6 98 -20 101 -9 2 -19 -2 -23 -8z"/>
<path d="M5737 584 c-4 -4 -7 -49 -7 -101 l0 -93 60 0 c45 0 62 4 67 15 7 20
0 27 -29 30 -13 1 -28 3 -35 4 -8 1 -13 26 -15 73 -2 56 -7 73 -18 76 -9 1
-19 0 -23 -4z"/>
<path d="M6003 583 c-30 -6 -45 -27 -41 -60 2 -21 12 -32 40 -45 20 -10 39
-22 43 -28 9 -14 -31 -13 -55 2 -15 10 -22 10 -32 0 -19 -19 2 -45 45 -56 89
-23 149 70 67 104 -16 7 -35 18 -41 26 -9 11 -7 14 12 14 20 0 21 -2 9 -11
-12 -8 -10 -9 10 -5 14 3 28 6 33 6 19 0 5 41 -19 50 -26 10 -33 10 -71 3z"/>
<path d="M1802 540 c0 -19 2 -27 5 -17 2 9 2 25 0 35 -3 9 -5 1 -5 -18z"/>
<path d="M2352 544 c-16 -11 -22 -25 -22 -55 0 -47 27 -79 68 -79 47 0 71 24
74 78 3 41 0 49 -21 60 -32 16 -72 15 -99 -4z"/>
<path d="M4442 544 c-47 -33 -11 -134 48 -134 24 0 61 18 72 34 13 19 9 71 -8
94 -18 27 -78 30 -112 6z"/>
<path d="M5533 475 c0 -27 2 -38 4 -22 2 15 2 37 0 50 -2 12 -4 0 -4 -28z"/>
</g>
</svg>
